<svg xmlns="http://www.w3.org/2000/svg" version="1.1" xmlns:xlink="http://www.w3.org/1999/xlink" xmlns:svgjs="http://svgjs.dev/svgjs" width="2000" height="1247" viewBox="0 0 2000 1247"><g transform="matrix(1,0,0,1,-1.2121212121212466,0.504858299595071)"><svg viewBox="0 0 396 247" data-background-color="#181515" preserveAspectRatio="xMidYMid meet" height="1247" width="2000" xmlns="http://www.w3.org/2000/svg" xmlns:xlink="http://www.w3.org/1999/xlink"><g id="tight-bounds" transform="matrix(1,0,0,1,0.2400000000000091,-0.09999999999999432)"><svg viewBox="0 0 395.52 247.2" height="247.2" width="395.52"><g><svg></svg></g><g><svg viewBox="0 0 395.52 247.2" height="247.2" width="395.52"><mask id="d939bc49-0b48-46b8-ba76-2fd005655584"><rect width="640" height="400" fill="white"></rect><g transform="matrix(1,0,0,1,39.55200000000002,80.47572709551656)"><svg viewBox="0 0 316.41599999999994 86.24854580896685" height="86.24854580896685" width="316.41599999999994"><g><svg viewBox="0 0 316.41599999999994 86.24854580896685" height="86.24854580896685" width="316.41599999999994"><g><svg viewBox="0 0 316.41599999999994 86.24854580896685" height="86.24854580896685" width="316.41599999999994"><g><svg viewBox="0 0 316.41599999999994 86.24854580896685" height="86.24854580896685" width="316.41599999999994"><g id="SvgjsG3980"><svg viewBox="0 0 316.41599999999994 86.24854580896685" height="86.24854580896685" width="316.41599999999994" id="SvgjsSvg3979"><g><svg viewBox="0 0 316.41599999999994 86.24854580896685" height="86.24854580896685" width="316.41599999999994"><g transform="matrix(1,0,0,1,0,0)"><svg width="316.41599999999994" viewBox="-9.1 -38.95 154.89 42.95" height="86.24854580896685" data-palette-color="#ba1313"><path d="M36.55-2.15L42.35-2.15 42.35 0 29.2 0 25.95-7.55 11.3-7.55 8.05 0-5.1 0-5.1-2.15 0.65-2.15 14.85-34.95 22.4-34.95 36.55-2.15ZM23-14.4L18.65-24.55 14.25-14.4 23-14.4ZM51.65 0L37.25 0 37.25-2.15 41.05-2.15Q40.05-3.3 40.05-5.08 40.05-6.85 41.32-8.13 42.6-9.4 44.45-9.4 46.3-9.4 47.57-8.13 48.85-6.85 48.85-5.1 48.85-3.35 47.8-2.15L47.8-2.15 51.65-2.15 51.65 0ZM51.1-2.15L55.95-2.15 55.95-34.95 69.2-34.95Q77.34-34.95 80.82-32.2 84.3-29.45 84.3-23.35L84.3-23.35Q84.3-14.95 77.65-12.5L77.65-12.5 84.95-2.15 89.65-2.15 89.65 0 76.9 0 69.15-11.15 63.75-11.15 63.75 0 51.1 0 51.1-2.15ZM69.45-17.9Q73.45-17.9 74.9-19.2 76.34-20.5 76.34-23.33 76.34-26.15 74.84-27.2 73.34-28.25 69.59-28.25L69.59-28.25 63.75-28.25 63.75-17.9 69.45-17.9ZM102.39 0L87.99 0 87.99-2.15 91.79-2.15Q90.79-3.3 90.79-5.08 90.79-6.85 92.07-8.13 93.34-9.4 95.19-9.4 97.04-9.4 98.32-8.13 99.59-6.85 99.59-5.1 99.59-3.35 98.54-2.15L98.54-2.15 102.39-2.15 102.39 0ZM118.79-2.15L130.09-2.15 130.09 0 99.69 0 99.69-2.15 110.99-2.15 110.99-28.2 101.09-28.2 101.09-34.95 128.69-34.95 128.69-28.2 118.79-28.2 118.79-2.15ZM141.79 0L127.39 0 127.39-2.15 131.19-2.15Q130.19-3.3 130.19-5.08 130.19-6.85 131.46-8.13 132.74-9.4 134.59-9.4 136.44-9.4 137.71-8.13 138.99-6.85 138.99-5.1 138.99-3.35 137.94-2.15L137.94-2.15 141.79-2.15 141.79 0Z" opacity="1" transform="matrix(1,0,0,1,0,0)" fill="black" class="wordmark-text-0" id="SvgjsPath3978" stroke-width="7" stroke="black" stroke-linejoin="round"></path></svg></g></svg></g></svg></g></svg></g><g></g></svg></g></svg></g></svg></g></mask><g transform="matrix(1,0,0,1,39.55200000000002,80.47572709551656)"><svg viewBox="0 0 316.41599999999994 86.24854580896685" height="86.24854580896685" width="316.41599999999994"><g><svg viewBox="0 0 316.41599999999994 86.24854580896685" height="86.24854580896685" width="316.41599999999994"><g><svg viewBox="0 0 316.41599999999994 86.24854580896685" height="86.24854580896685" width="316.41599999999994"><g><svg viewBox="0 0 316.41599999999994 86.24854580896685" height="86.24854580896685" width="316.41599999999994"><g id="textblocktransform"><svg viewBox="0 0 316.41599999999994 86.24854580896685" height="86.24854580896685" width="316.41599999999994" id="textblock"><g><svg viewBox="0 0 316.41599999999994 86.24854580896685" height="86.24854580896685" width="316.41599999999994"><g transform="matrix(1,0,0,1,0,0)"><svg width="316.41599999999994" viewBox="-9.1 -38.95 154.89 42.95" height="86.24854580896685" data-palette-color="#ba1313"><path d="M36.55-2.15L42.35-2.15 42.35 0 29.2 0 25.95-7.55 11.3-7.55 8.05 0-5.1 0-5.1-2.15 0.65-2.15 14.85-34.95 22.4-34.95 36.55-2.15ZM23-14.4L18.65-24.55 14.25-14.4 23-14.4ZM51.65 0L37.25 0 37.25-2.15 41.05-2.15Q40.05-3.3 40.05-5.08 40.05-6.85 41.32-8.13 42.6-9.4 44.45-9.4 46.3-9.4 47.57-8.13 48.85-6.85 48.85-5.1 48.85-3.35 47.8-2.15L47.8-2.15 51.65-2.15 51.65 0ZM51.1-2.15L55.95-2.15 55.95-34.95 69.2-34.95Q77.34-34.95 80.82-32.2 84.3-29.45 84.3-23.35L84.3-23.35Q84.3-14.95 77.65-12.5L77.65-12.5 84.95-2.15 89.65-2.15 89.65 0 76.9 0 69.15-11.15 63.75-11.15 63.75 0 51.1 0 51.1-2.15ZM69.45-17.9Q73.45-17.9 74.9-19.2 76.34-20.5 76.34-23.33 76.34-26.15 74.84-27.2 73.34-28.25 69.59-28.25L69.59-28.25 63.75-28.25 63.75-17.9 69.45-17.9ZM102.39 0L87.99 0 87.99-2.15 91.79-2.15Q90.79-3.3 90.79-5.08 90.79-6.85 92.07-8.13 93.34-9.4 95.19-9.4 97.04-9.4 98.32-8.13 99.59-6.85 99.59-5.1 99.59-3.35 98.54-2.15L98.54-2.15 102.39-2.15 102.39 0ZM118.79-2.15L130.09-2.15 130.09 0 99.69 0 99.69-2.15 110.99-2.15 110.99-28.2 101.09-28.2 101.09-34.95 128.69-34.95 128.69-28.2 118.79-28.2 118.79-2.15ZM141.79 0L127.39 0 127.39-2.15 131.19-2.15Q130.19-3.3 130.19-5.08 130.19-6.85 131.46-8.13 132.74-9.4 134.59-9.4 136.44-9.4 137.71-8.13 138.99-6.85 138.99-5.1 138.99-3.35 137.94-2.15L137.94-2.15 141.79-2.15 141.79 0Z" opacity="1" transform="matrix(1,0,0,1,0,0)" fill="#ba1313" class="wordmark-text-0" data-fill-palette-color="primary" id="text-0"></path></svg></g></svg></g></svg></g></svg></g><g></g></svg></g></svg></g></svg></g><g mask="url(#d939bc49-0b48-46b8-ba76-2fd005655584)"><g transform="matrix(4.086666666666667, 0, 0, 4.086666666666667, 75.15999999999998, 0.9999999999999858)"><svg xmlns="http://www.w3.org/2000/svg" xmlns:xlink="http://www.w3.org/1999/xlink" version="1.1" x="0" y="0" viewBox="19.5 20.5 60 60" enable-background="new 0 0 100 100" xml:space="preserve" height="60" width="60" class="icon-none" data-fill-palette-color="accent" id="none"></svg></g></g></svg></g><defs></defs><mask id="740a8a7c-75f3-4f69-84ea-14263eb0e452"><g id="SvgjsG4000"><svg viewBox="0 0 395.52 247.2" height="247.2" width="395.52"><g><svg></svg></g><g><svg viewBox="0 0 395.52 247.2" height="247.2" width="395.52"><mask id="SvgjsMask3999"><g transform="matrix(1,0,0,1,39.55200000000002,80.47572709551656)"><svg viewBox="0 0 316.41599999999994 86.24854580896685" height="86.24854580896685" width="316.41599999999994"><g><svg viewBox="0 0 316.41599999999994 86.24854580896685" height="86.24854580896685" width="316.41599999999994"><g><svg viewBox="0 0 316.41599999999994 86.24854580896685" height="86.24854580896685" width="316.41599999999994"><g><svg viewBox="0 0 316.41599999999994 86.24854580896685" height="86.24854580896685" width="316.41599999999994"><g id="SvgjsG3998"><svg viewBox="0 0 316.41599999999994 86.24854580896685" height="86.24854580896685" width="316.41599999999994" id="SvgjsSvg3997"><g><svg viewBox="0 0 316.41599999999994 86.24854580896685" height="86.24854580896685" width="316.41599999999994"><g transform="matrix(1,0,0,1,0,0)"><svg width="316.41599999999994" viewBox="-9.1 -38.95 154.89 42.95" height="86.24854580896685" data-palette-color="#ba1313"></svg></g></svg></g></svg></g></svg></g><g></g></svg></g></svg></g></svg></g></mask><g transform="matrix(1,0,0,1,39.55200000000002,80.47572709551656)"><svg viewBox="0 0 316.41599999999994 86.24854580896685" height="86.24854580896685" width="316.41599999999994"><g><svg viewBox="0 0 316.41599999999994 86.24854580896685" height="86.24854580896685" width="316.41599999999994"><g><svg viewBox="0 0 316.41599999999994 86.24854580896685" height="86.24854580896685" width="316.41599999999994"><g><svg viewBox="0 0 316.41599999999994 86.24854580896685" height="86.24854580896685" width="316.41599999999994"><g id="SvgjsG3995"><svg viewBox="0 0 316.41599999999994 86.24854580896685" height="86.24854580896685" width="316.41599999999994" id="SvgjsSvg3994"><g><svg viewBox="0 0 316.41599999999994 86.24854580896685" height="86.24854580896685" width="316.41599999999994"><g transform="matrix(1,0,0,1,0,0)"><svg width="316.41599999999994" viewBox="-9.1 -38.95 154.89 42.95" height="86.24854580896685" data-palette-color="#ba1313"></svg></g></svg></g></svg></g></svg></g><g></g></svg></g></svg></g></svg></g><g mask="url(#d939bc49-0b48-46b8-ba76-2fd005655584)"><g transform="matrix(4.086666666666667, 0, 0, 4.086666666666667, 75.15999999999998, 0.9999999999999858)"><svg xmlns="http://www.w3.org/2000/svg" xmlns:xlink="http://www.w3.org/1999/xlink" version="1.1" x="0" y="0" viewBox="19.5 20.5 60 60" enable-background="new 0 0 100 100" xml:space="preserve" height="60" width="60" class="icon-none" data-fill-palette-color="accent" id="SvgjsSvg3992"><path d="M33.5 20.5v16h15v12h-15v14h-14v18h17v-15h15v-14h11v14h17v-45H33.5zM33.5 77.5h-11v-12h11V77.5zM76.5 62.5h-11v-14h-14v-15h-15v-10h40V62.5z" fill="white"></path></svg></g></g></svg></g><defs><mask></mask></defs></svg></g></mask><linearGradient x1="0.054" x2="0.941" y1="0.5" y2="0.5" id="29c3a577-dd37-4d0b-b5c3-98591572b332"><stop stop-color="#26282a" offset="0"></stop><stop stop-color="#9e9fa0" offset="0.498"></stop><stop stop-color="#26282a" offset="1"></stop></linearGradient><rect width="395.52" height="247.2" fill="url(#29c3a577-dd37-4d0b-b5c3-98591572b332)" mask="url(#740a8a7c-75f3-4f69-84ea-14263eb0e452)" data-fill-palette-color="accent"></rect></svg><rect width="395.52" height="247.2" fill="none" stroke="none" visibility="hidden"></rect></g></svg></g></svg>